<svg width="832" height="832" viewBox="0 0 832 832" fill="none" xmlns="http://www.w3.org/2000/svg">
<mask id="mask0_202_903" style="mask-type:luminance" maskUnits="userSpaceOnUse" x="0" y="0" width="832" height="832">
<path fill-rule="evenodd" clip-rule="evenodd" d="M832 259.119C832 249.242 832.004 239.364 831.943 229.486C831.894 221.165 831.798 212.846 831.572 204.529C831.083 186.402 830.014 168.119 826.79 150.194C823.52 132.01 818.181 115.086 809.767 98.5644C801.496 82.3253 790.691 67.4655 777.799 54.5826C764.91 41.6998 750.046 30.902 733.801 22.6356C717.263 14.2197 700.321 8.88238 682.117 5.61396C664.19 2.39502 645.902 1.32776 627.775 0.838055C619.452 0.612891 611.129 0.517979 602.804 0.466484C592.921 0.405901 583.038 0.41095 573.155 0.41095L458.404 0H372.58L259.86 0.41095C249.958 0.41095 240.055 0.405901 230.153 0.466484C221.811 0.517979 213.473 0.612891 205.134 0.838055C186.964 1.32776 168.635 2.39603 150.666 5.61901C132.437 8.88641 115.47 14.2217 98.9093 22.6315C82.6299 30.899 67.7338 41.6978 54.8177 54.5826C41.9036 67.4645 31.0786 82.3213 22.792 98.5573C14.3549 115.087 9.00553 132.021 5.72804 150.215C2.50103 168.133 1.43176 186.41 0.940032 204.529C0.715878 212.847 0.618947 221.166 0.568462 229.486C0.50788 239.365 0 251.636 0 261.514L0.0030291 372.672L0 459.416L0.512928 572.936C0.512928 582.827 0.508889 592.718 0.568462 602.609C0.618947 610.941 0.715878 619.271 0.941042 627.6C1.43176 645.751 2.50305 664.06 5.73308 682.009C9.00956 700.217 14.358 717.165 22.7879 733.708C31.0756 749.971 41.9026 764.85 54.8177 777.751C67.7328 790.652 82.6249 801.464 98.9012 809.742C115.472 818.169 132.448 823.513 150.687 826.786C168.648 830.01 186.971 831.079 205.134 831.569C213.473 831.794 221.812 831.89 230.154 831.94C240.056 832.001 249.958 831.997 259.86 831.997L373.599 832H459.636L573.155 831.996C583.038 831.996 592.921 832.001 602.804 831.94C611.129 831.89 619.452 831.794 627.775 831.569C645.909 831.078 664.203 830.008 682.138 826.782C700.331 823.509 717.264 818.167 733.794 809.745C750.042 801.468 764.909 790.654 777.799 777.751C790.689 764.852 801.493 749.975 809.764 733.715C818.183 717.164 823.522 700.208 826.794 681.988C830.015 664.046 831.083 645.744 831.573 627.6C831.798 619.27 831.894 610.94 831.943 602.609C832.005 592.718 832 582.827 832 572.936C832 572.936 831.994 461.42 831.994 459.416V372.581C831.994 371.101 832 259.119 832 259.119Z" fill="white" style="fill:white;fill-opacity:1;"/>
</mask>
<g mask="url(#mask0_202_903)">
<rect width="832" height="832" fill="white" style="fill:white;fill-opacity:1;"/>
<rect width="832" height="832" fill="#0B0D10" style="fill:#0B0D10;fill:color(display-p3 0.0431 0.0510 0.0627);fill-opacity:1;"/>
<path d="M338.287 478.667C340.214 505.083 346.573 521.333 371.044 539.733C377.025 543.362 382.305 545.669 389.117 548.267C390.935 549.023 392.754 549.779 394.627 550.558C404.985 553.323 414.709 553.191 425.532 553.214C427.876 553.235 430.22 553.256 432.635 553.278C440.36 553.344 448.085 553.381 455.811 553.417C461.175 553.457 466.54 553.498 471.905 553.542C486.009 553.651 500.113 553.736 514.218 553.815C528.617 553.901 543.015 554.01 557.414 554.117C585.654 554.324 613.894 554.503 642.135 554.667V586.667C637.652 586.679 637.652 586.679 633.078 586.69C604.855 586.769 576.633 586.892 548.41 587.059C533.902 587.143 519.394 587.212 504.886 587.245C490.874 587.278 476.862 587.351 462.851 587.452C457.516 587.484 452.181 587.501 446.846 587.503C439.349 587.508 431.856 587.566 424.36 587.636C422.175 587.625 419.988 587.614 417.736 587.603C394.872 587.93 376.829 595.261 360.183 608C347.411 619.772 340.255 633.035 339.245 648.767C339.083 651.18 339.083 651.18 338.918 653.642C338.816 655.3 338.715 656.958 338.61 658.667C338.443 661.204 338.443 661.204 338.272 663.792C338 667.95 337.739 672.108 337.48 676.267H298.753C298.686 673.742 298.62 671.218 298.552 668.617C297.664 645.272 296.569 625.594 276.808 607.467C250.514 587.814 224.33 584.6 190.316 584.533V554.667C199.103 554.337 199.103 554.337 208.066 554C235.576 552.578 258.845 548.609 278.099 531.2C296.833 509.36 299.002 488.879 298.753 462.934H337.48C337.88 470.721 337.88 470.722 338.287 478.667ZM490.451 335.867C493.309 357.958 505.91 373.605 525.951 388.267C547.233 400.46 575.964 398.512 600.824 398.934V433.066C597.523 433.146 594.221 433.226 590.819 433.309C586.409 433.449 581.998 433.59 577.588 433.733C574.338 433.806 574.338 433.805 571.022 433.879C543.822 434.837 526.388 442.06 507.879 458.667C494.405 472.963 492.287 487.901 489.807 505.601H451.079C450.121 499.265 450.12 499.264 449.143 492.8C445.756 474.796 439.858 462.071 422.679 450.134C405.147 440.005 390.87 434.574 369.163 434.52C367.197 434.498 365.231 434.477 363.206 434.455C356.738 434.389 350.271 434.353 343.803 434.316C339.306 434.276 334.809 434.235 330.312 434.191C318.5 434.082 306.688 433.997 294.876 433.918C282.813 433.832 270.751 433.724 258.688 433.617C235.037 433.411 211.385 433.232 187.733 433.066V401.066C193.515 401.058 199.297 401.049 205.254 401.04C224.463 401.003 243.671 400.908 262.879 400.785C274.513 400.712 286.147 400.658 297.781 400.649C309.031 400.64 320.28 400.579 331.529 400.483C335.798 400.456 340.068 400.446 344.337 400.456C373.783 400.508 399.515 398.372 424 383.158C441.885 367.684 450.692 347.526 451.079 326.4H489.807C490.02 329.524 490.232 332.649 490.451 335.867ZM337.681 162.917C338.797 190.601 343.744 208.355 366.383 229.708C393.526 248.294 420.812 246.904 454.487 246.842C459.834 246.87 465.181 246.902 470.527 246.939C484.525 247.024 498.522 247.046 512.521 247.055C526.834 247.075 541.148 247.155 555.461 247.229C583.491 247.367 611.521 247.438 639.552 247.467V279.467C635.117 279.478 635.117 279.478 630.593 279.49C602.674 279.569 574.755 279.693 546.837 279.859C532.485 279.944 518.133 280.012 503.781 280.045C489.92 280.077 476.059 280.151 462.198 280.253C456.921 280.284 451.643 280.301 446.366 280.303C438.95 280.308 431.537 280.366 424.122 280.436C421.96 280.425 419.798 280.414 417.571 280.403C394.792 280.733 376.758 288.114 360.181 300.8C347.409 312.571 340.254 325.835 339.244 341.566C339.082 343.979 339.082 343.98 338.916 346.441C338.815 348.1 338.713 349.758 338.608 351.467C338.441 354.004 338.441 354.004 338.271 356.592C337.998 360.75 337.737 364.908 337.479 369.066H298.752C298.745 366.234 298.738 363.402 298.731 360.483C298.487 330.442 298.487 330.442 280.679 305.066C279.155 303.656 277.63 302.245 276.06 300.792C251.387 280.699 220.362 280.099 187.733 279.467V247.467C196.919 247.269 196.919 247.268 206.29 247.066C232.9 245.986 259.238 240.362 278.097 224C293.492 208.813 296.932 194.667 297.783 175.2C297.883 173.325 297.983 171.449 298.086 169.517C298.328 164.923 298.543 160.328 298.752 155.733H337.479C337.545 158.104 337.612 160.475 337.681 162.917Z" fill="#F1C409" style="fill:#F1C409;fill:color(display-p3 0.9451 0.7686 0.0353);fill-opacity:1;"/>
</g>
</svg>
